Coordinates
nRows=250
nColumns=2
inDegrees=yes
endheader
time	ankle_angle_r	
3.65904	  0.228882	
3.6923	  0.183105	
3.72557	  0.198364	
3.75883	  0.198364	
3.7921	  0.228882	
3.82536	  0.167847	
3.85862	  0.244141	
3.89189	  0.228882	
3.92515	  0.183105	
3.95842	  0.244141	
3.99168	  0.213623	
4.02494	  0.167847	
4.05821	  0.244141	
4.09147	  0.152588	
4.12474	  0.167847	
4.158	  0.198364	
4.19126	  0.152588	
4.22453	  0.152588	
4.25779	  0.228882	
4.29106	  0.137329	
4.32432	  0.152588	
4.35758	  0.198364	
4.39085	  0.152588	
4.42411	  0.152588	
4.45738	  0.213623	
4.49064	  0.122070	
4.5239	  0.137329	
4.55717	  0.183105	
4.59043	  0.137329	
4.6237	  0.137329	
4.65696	  0.198364	
4.69022	  0.122070	
4.72349	  0.137329	
4.75675	  0.198364	
4.79002	  0.122070	
4.82328	  0.137329	
4.85654	  0.183105	
4.88981	  0.122070	
4.92307	  0.122070	
4.95634	  0.183105	
4.9896	  0.106812	
5.02286	  0.122070	
5.05613	  0.198364	
5.08939	  0.061035	
5.12266	  0.045776	
5.15592	  0.137329	
5.18918	  0.076294	
5.22245	  0.061035	
5.25571	  0.106812	
5.28898	  0.076294	
5.32224	  0.045776	
5.3555	  0.106812	
5.38877	  0.030518	
5.42203	  0.000000	
5.4553	  0.091553	
5.48856	  0.045776	
5.52182	  0.030518	
5.55509	  0.122070	
5.58835	  0.076294	
5.62162	  0.061035	
5.65488	  0.137329	
5.68814	  0.091553	
5.72141	  0.076294	
5.75467	  0.137329	
5.78794	  0.091553	
5.8212	  0.122070	
5.85446	  0.198364	
5.88773	  0.137329	
5.92099	  0.152588	
5.95426	  0.198364	
5.98752	  0.106812	
6.02078	  0.183105	
6.05405	  0.228882	
6.08731	  0.137329	
6.12058	  0.183105	
6.15384	  0.213623	
6.1871	  0.137329	
6.22037	  0.228882	
6.25363	  0.244141	
6.2869	  0.152588	
6.32016	  0.244141	
6.35342	  0.213623	
6.38669	  0.183105	
6.41995	  0.244141	
6.45322	  0.198364	
6.48648	  0.167847	
6.51974	  0.244141	
6.55301	  0.167847	
6.58627	  0.122070	
6.61954	  0.198364	
6.6528	  0.167847	
6.68606	  0.122070	
6.71933	  0.213623	
6.75259	  0.198364	
6.78586	  0.061035	
6.81912	  0.198364	
6.85238	  0.198364	
6.88565	  0.091553	
6.91891	  0.198364	
6.95218	  0.167847	
6.98544	  0.091553	
7.0187	  0.167847	
7.05197	  0.152588	
7.08523	  0.076294	
7.1185	  0.213623	
7.15176	  0.198364	
7.18502	  0.137329	
7.21829	  0.228882	
7.25155	  0.213623	
7.28482	  0.167847	
7.31808	  0.244141	
7.35134	  0.259399	
7.38461	  0.183105	
7.41787	  0.228882	
7.45114	  0.198364	
7.4844	  0.167847	
7.51766	  0.244141	
7.55093	  0.274658	
7.58419	  0.183105	
7.61746	  0.213623	
7.65072	  0.244141	
7.68398	  0.183105	
7.71725	  0.244141	
7.75051	  0.228882	
7.78378	  0.152588	
7.81704	  0.213623	
7.8503	  0.228882	
7.88357	  0.183105	
7.91683	  0.228882	
7.9501	  0.198364	
7.98336	  0.167847	
8.01662	  0.198364	
8.04989	  0.122070	
8.08315	  0.167847	
8.11642	  0.183105	
8.14968	  0.091553	
8.18294	  0.091553	
8.21621	  0.152588	
8.24947	  0.061035	
8.28274	  0.076294	
8.316	  0.076294	
8.34926	  0.061035	
8.38253	  0.045776	
8.41579	  0.106812	
8.44906	  0.061035	
8.48232	  0.030518	
8.51558	  0.106812	
8.54885	  0.000000	
8.58211	  0.015259	
8.61538	  0.106812	
8.64864	  0.076294	
8.6819	  0.091553	
8.71517	  0.152588	
8.74843	  0.106812	
8.7817	  0.106812	
8.81496	  0.183105	
8.84822	  0.137329	
8.88149	  0.091553	
8.91475	  0.198364	
8.94802	  0.091553	
8.98128	  0.122070	
9.01454	  0.183105	
9.04781	  0.091553	
9.08107	  0.091553	
9.11434	  0.183105	
9.1476	  0.122070	
9.18086	  0.106812	
9.21413	  0.198364	
9.24739	  0.137329	
9.28066	  0.106812	
9.31392	  0.167847	
9.34718	  0.122070	
9.38045	  0.076294	
9.41371	  0.183105	
9.44698	  0.122070	
9.48024	  0.091553	
9.5135	  0.137329	
9.54677	  0.122070	
9.58003	  0.091553	
9.6133	  0.167847	
9.64656	  0.091553	
9.67982	  0.122070	
9.71309	  0.137329	
9.74635	  0.061035	
9.77962	  0.076294	
9.81288	  0.122070	
9.84614	  0.106812	
9.87941	  0.122070	
9.91267	  0.137329	
9.94594	  0.061035	
9.9792	  0.106812	
10.0125	  0.152588	
10.0457	  0.061035	
10.079	  0.152588	
10.1123	  0.152588	
10.1455	  0.091553	
10.1788	  0.167847	
10.212	  0.152588	
10.2453	  0.106812	
10.2786	  0.137329	
10.3118	  0.152588	
10.3451	  0.091553	
10.3784	  0.152588	
10.4116	  0.122070	
10.4449	  0.076294	
10.4782	  0.213623	
10.5114	  0.167847	
10.5447	  0.091553	
10.578	  0.152588	
10.6112	  0.167847	
10.6445	  0.061035	
10.6777	  0.167847	
10.711	  0.198364	
10.7443	  0.106812	
10.7775	  0.152588	
10.8108	  0.167847	
10.8441	  0.122070	
10.8773	  0.167847	
10.9106	  0.244141	
10.9439	  0.122070	
10.9771	  0.198364	
11.0104	  0.228882	
11.0436	  0.137329	
11.0769	  0.183105	
11.1102	  0.228882	
11.1434	  0.183105	
11.1767	  0.228882	
11.21	  0.259399	
11.2432	  0.122070	
11.2765	  0.213623	
11.3098	  0.259399	
11.343	  0.167847	
11.3763	  0.213623	
11.4096	  0.228882	
11.4428	  0.152588	
11.4761	  0.228882	
11.5093	  0.213623	
11.5426	  0.137329	
11.5759	  0.213623	
11.6091	  0.152588	
11.6424	  0.122070	
11.6757	  0.167847	
11.7089	  0.122070	
11.7422	  0.137329	
11.7755	  0.183105	
11.8087	  0.091553	
11.842	  0.106812	
11.8752	  0.106812	
11.9085	  0.122070	
11.9418	  0.122070	
